<?xml version="1.0" standalone="no"?>
<!DOCTYPE svg PUBLIC "-//W3C//DTD SVG 20010904//EN"
 "http://www.w3.org/TR/2001/REC-SVG-20010904/DTD/svg10.dtd">
<svg version="1.0" xmlns="http://www.w3.org/2000/svg"
 width="82.000000pt" height="82.000000pt" viewBox="0 0 82.000000 82.000000"
 preserveAspectRatio="xMidYMid meet">

<g transform="translate(0.000000,82.000000) scale(0.100000,-0.100000)"
fill="#000000" stroke="none">
<path d="M273 685 c-62 -31 -127 -100 -156 -163 -31 -71 -29 -189 5 -262 31
-68 83 -122 151 -158 45 -23 64 -27 137 -27 73 0 93 4 141 28 67 32 132 100
162 165 29 65 28 188 -1 254 -28 63 -89 128 -149 158 -39 20 -66 26 -143 28
-86 3 -100 1 -147 -23z m265 -48 c125 -62 184 -234 123 -359 -43 -89 -150
-158 -246 -158 -141 0 -275 131 -275 269 0 205 216 339 398 248z"/>
<path d="M249 551 c-37 -38 -39 -88 -5 -128 l24 -28 -25 -29 c-33 -39 -27
-100 12 -133 37 -32 105 -32 135 0 l23 23 23 -23 c25 -25 89 -32 125 -13 49
27 61 117 20 154 -19 17 -19 18 6 54 31 46 26 96 -12 130 -34 29 -102 30 -137
3 -23 -19 -24 -19 -48 0 -16 11 -41 19 -68 19 -35 0 -49 -6 -73 -29z m115 -29
c15 -18 15 -19 -9 -30 -14 -7 -30 -23 -37 -36 -9 -21 -14 -23 -29 -15 -23 12
-25 61 -3 83 21 21 57 20 78 -2z m178 1 c22 -20 23 -51 3 -73 -14 -16 -19 -14
-56 23 -38 38 -39 42 -23 54 24 18 54 16 76 -4z m-83 -89 c27 -34 26 -50 -4
-79 -29 -30 -54 -32 -83 -5 -27 26 -28 64 -2 90 28 28 64 25 89 -6z m-121
-114 l42 -39 -26 -18 c-24 -15 -29 -15 -53 -2 -29 16 -40 61 -20 85 6 8 12 14
14 14 1 0 21 -18 43 -40z m214 15 c24 -54 -39 -109 -82 -70 -18 16 -17 18 18
55 20 21 40 39 45 39 4 1 13 -10 19 -24z"/>
</g>
</svg>
