<svg width="300" height="300" viewBox="0 0 300 300" fill="none" xmlns="http://www.w3.org/2000/svg">
<path d="M237.5 150L187.5 100M237.5 150L187.5 200M237.5 150H112.5M175 262.5C160.226 262.5 145.597 259.59 131.948 253.936C118.299 248.283 105.897 239.996 95.4505 229.55C85.0039 219.103 76.7172 206.701 71.0635 193.052C65.4099 179.403 62.5 164.774 62.5 150C62.5 135.226 65.4099 120.597 71.0635 106.948C76.7172 93.299 85.0039 80.8971 95.4505 70.4505C105.897 60.0039 118.299 51.7172 131.948 46.0636C145.597 40.4099 160.226 37.5 175 37.5" stroke="#E7E6E6" stroke-width="25" stroke-linecap="round" stroke-linejoin="round"/>
</svg>
