<?xml version="1.0" standalone="no"?>
<!DOCTYPE svg PUBLIC "-//W3C//DTD SVG 20010904//EN"
 "http://www.w3.org/TR/2001/REC-SVG-20010904/DTD/svg10.dtd">
<svg version="1.0" xmlns="http://www.w3.org/2000/svg"
 width="496.000000pt" height="496.000000pt" viewBox="0 0 496.000000 496.000000"
 preserveAspectRatio="xMidYMid meet">

<g transform="translate(0.000000,496.000000) scale(0.100000,-0.100000)"
fill="#5782AA" stroke="none">
<path d="M2165 4599 c-822 -109 -1497 -658 -1764 -1432 -79 -230 -115 -445
-114 -697 0 -347 66 -635 218 -945 116 -238 238 -407 427 -591 331 -322 727
-519 1188 -590 158 -24 462 -24 620 0 462 71 857 267 1188 590 345 336 559
759 628 1241 20 144 23 417 5 555 -63 486 -273 912 -616 1255 -321 322 -696
516 -1160 601 -106 19 -509 28 -620 13z m1095 -1489 c13 -8 12 -12 -5 -28 -17
-17 -712 -595 -756 -630 -14 -11 -69 31 -395 304 -452 378 -413 342 -394 354
20 13 1530 13 1550 0z m-1221 -455 c222 -185 415 -342 427 -347 31 -14 8 -31
488 367 218 182 403 331 411 333 13 3 15 -67 15 -543 l0 -546 -45 -44 -44 -45
-806 0 -805 0 -39 36 c-73 65 -72 57 -69 620 2 410 6 504 17 518 12 14 16 15
30 3 9 -8 198 -166 420 -352z"/>
</g>
</svg>
