<svg width="174" height="125" viewBox="0 0 174 125" fill="none" xmlns="http://www.w3.org/2000/svg">
<path d="M21.75 29.2969C21.75 27.7429 22.6093 26.2525 24.1389 25.1537C25.6685 24.0548 27.7431 23.4375 29.9062 23.4375H144.094C146.257 23.4375 148.331 24.0548 149.861 25.1537C151.391 26.2525 152.25 27.7429 152.25 29.2969C152.25 30.8509 151.391 32.3412 149.861 33.4401C148.331 34.5389 146.257 35.1562 144.094 35.1562H29.9062C27.7431 35.1562 25.6685 34.5389 24.1389 33.4401C22.6093 32.3412 21.75 30.8509 21.75 29.2969ZM21.75 60.5469C21.75 58.9929 22.6093 57.5025 24.1389 56.4037C25.6685 55.3048 27.7431 54.6875 29.9062 54.6875H144.094C146.257 54.6875 148.331 55.3048 149.861 56.4037C151.391 57.5025 152.25 58.9929 152.25 60.5469C152.25 62.1009 151.391 63.5912 149.861 64.6901C148.331 65.7889 146.257 66.4062 144.094 66.4062H29.9062C27.7431 66.4062 25.6685 65.7889 24.1389 64.6901C22.6093 63.5912 21.75 62.1009 21.75 60.5469ZM21.75 91.7969C21.75 90.2429 22.6093 88.7525 24.1389 87.6537C25.6685 86.5548 27.7431 85.9375 29.9062 85.9375H144.094C146.257 85.9375 148.331 86.5548 149.861 87.6537C151.391 88.7525 152.25 90.2429 152.25 91.7969C152.25 93.3509 151.391 94.8412 149.861 95.9401C148.331 97.0389 146.257 97.6562 144.094 97.6562H29.9062C27.7431 97.6562 25.6685 97.0389 24.1389 95.9401C22.6093 94.8412 21.75 93.3509 21.75 91.7969Z" fill="#333333"/>
</svg>
