<svg width="300" height="300" viewBox="0 0 300 300" fill="none" xmlns="http://www.w3.org/2000/svg">
<path d="M150 37.5C130.482 37.4934 111.298 42.5648 94.3337 52.2159C77.369 61.867 63.207 75.7656 53.2392 92.5462C43.2715 109.327 37.841 128.412 37.4812 147.927C37.1215 167.441 41.845 186.713 51.1875 203.85L37.875 250.538C37.4066 252.177 37.3941 253.913 37.8389 255.559C38.2837 257.205 39.169 258.698 40.3994 259.879C41.6298 261.059 43.1589 261.881 44.8219 262.257C46.4849 262.633 48.219 262.549 49.8375 262.012L93.675 247.406C108.616 256.04 125.343 261.121 142.562 262.256C159.781 263.391 177.03 260.55 192.976 253.952C208.921 247.355 223.135 237.177 234.517 224.207C245.9 211.237 254.146 195.823 258.619 179.156C263.091 162.489 263.669 145.017 260.308 128.091C256.948 111.165 249.739 95.2393 239.238 81.5453C228.738 67.8513 215.228 56.7563 199.754 49.1188C184.28 41.4812 167.256 37.5058 150 37.5ZM112.5 131.25C112.5 128.764 113.488 126.379 115.246 124.621C117.004 122.863 119.389 121.875 121.875 121.875H178.125C180.611 121.875 182.996 122.863 184.754 124.621C186.512 126.379 187.5 128.764 187.5 131.25C187.5 133.736 186.512 136.121 184.754 137.879C182.996 139.637 180.611 140.625 178.125 140.625H121.875C119.389 140.625 117.004 139.637 115.246 137.879C113.488 136.121 112.5 133.736 112.5 131.25ZM121.875 159.375H159.375C161.861 159.375 164.246 160.363 166.004 162.121C167.762 163.879 168.75 166.264 168.75 168.75C168.75 171.236 167.762 173.621 166.004 175.379C164.246 177.137 161.861 178.125 159.375 178.125H121.875C119.389 178.125 117.004 177.137 115.246 175.379C113.488 173.621 112.5 171.236 112.5 168.75C112.5 166.264 113.488 163.879 115.246 162.121C117.004 160.363 119.389 159.375 121.875 159.375Z" fill="#FFFFFF"/>
</svg>
