<svg width="500" height="500" viewBox="0 0 300 300" fill="none" xmlns="http://www.w3.org/2000/svg">
<path fill-rule="evenodd" clip-rule="evenodd" d="M150 75C153.978 75 157.794 76.5804 160.607 79.3934C163.42 82.2064 165 86.0218 165 90V135H210C213.978 135 217.794 136.58 220.607 139.393C223.42 142.206 225 146.022 225 150C225 153.978 223.42 157.794 220.607 160.607C217.794 163.42 213.978 165 210 165H165V210C165 213.978 163.42 217.794 160.607 220.607C157.794 223.42 153.978 225 150 225C146.022 225 142.206 223.42 139.393 220.607C136.58 217.794 135 213.978 135 210V165H90C86.0218 165 82.2064 163.42 79.3934 160.607C76.5804 157.794 75 153.978 75 150C75 146.022 76.5804 142.206 79.3934 139.393C82.2064 136.58 86.0218 135 90 135H135V90C135 86.0218 136.58 82.2064 139.393 79.3934C142.206 76.5804 146.022 75 150 75Z" fill="white"/>
</svg>
