<?xml version="1.0" standalone="no"?>
<!DOCTYPE svg PUBLIC "-//W3C//DTD SVG 20010904//EN"
 "http://www.w3.org/TR/2001/REC-SVG-20010904/DTD/svg10.dtd">
<svg version="1.0" xmlns="http://www.w3.org/2000/svg"
 width="91.000000pt" height="91.000000pt" viewBox="0 0 91.000000 91.000000"
 preserveAspectRatio="xMidYMid meet">

<g transform="translate(0.000000,91.000000) scale(0.100000,-0.100000)"
fill="#000000" stroke="none">
<path d="M316 736 c-203 -102 -251 -367 -95 -527 60 -61 123 -91 210 -97 136
-10 254 56 317 177 28 55 32 73 32 139 0 48 -6 95 -17 126 -22 60 -89 137
-152 174 -40 23 -58 27 -146 30 -89 2 -105 0 -149 -22z m240 -33 c66 -22 145
-101 167 -167 25 -72 22 -151 -7 -211 -42 -85 -39 -84 -91 -36 -59 54 -100 71
-172 71 -69 0 -129 -27 -174 -78 l-32 -36 -23 27 c-34 39 -58 129 -51 192 19
185 203 300 383 238z"/>
<path d="M404 660 c-30 -12 -71 -64 -79 -100 -16 -71 43 -149 117 -157 108
-11 181 100 130 197 -30 57 -108 85 -168 60z"/>
</g>
</svg>
