<?xml version="1.0" standalone="no"?>
<!DOCTYPE svg PUBLIC "-//W3C//DTD SVG 20010904//EN"
 "http://www.w3.org/TR/2001/REC-SVG-20010904/DTD/svg10.dtd">
<svg version="1.0" xmlns="http://www.w3.org/2000/svg"
 width="496.000000pt" height="496.000000pt" viewBox="0 0 496.000000 496.000000"
 preserveAspectRatio="xMidYMid meet">

<g transform="translate(0.000000,496.000000) scale(0.100000,-0.100000)"
fill="#000000" stroke="none">
<path d="M2170 4615 c-632 -91 -1177 -435 -1516 -956 -229 -352 -347 -752
-346 -1179 0 -1040 733 -1916 1767 -2111 156 -30 483 -37 654 -15 397 53 771
212 1081 463 100 81 281 269 357 369 395 529 529 1197 367 1832 -92 360 -272
685 -528 950 -328 341 -717 547 -1201 637 -123 23 -504 29 -635 10z m505
-1141 c300 -75 521 -370 502 -673 -11 -181 -138 -470 -393 -894 -110 -182
-267 -426 -275 -427 -4 0 -47 62 -97 138 -292 447 -484 813 -559 1067 -22 77
-22 217 2 305 57 217 235 404 450 474 115 37 245 40 370 10z"/>
<path d="M2420 3194 c-102 -28 -176 -88 -228 -188 -23 -45 -26 -63 -27 -146 0
-85 3 -101 29 -154 58 -119 156 -184 286 -193 140 -10 257 50 327 166 121 202
8 462 -226 517 -69 17 -92 17 -161 -2z"/>
</g>
</svg>
