<?xml version="1.0" standalone="no"?>
<!DOCTYPE svg PUBLIC "-//W3C//DTD SVG 20010904//EN"
 "http://www.w3.org/TR/2001/REC-SVG-20010904/DTD/svg10.dtd">
<svg version="1.0" xmlns="http://www.w3.org/2000/svg"
 width="496.000000pt" height="496.000000pt" viewBox="0 0 496.000000 496.000000"
 preserveAspectRatio="xMidYMid meet">

<g transform="translate(0.000000,496.000000) scale(0.100000,-0.100000)"
fill="#000000" stroke="none">
<path d="M2310 4590 c-947 -93 -1712 -772 -1909 -1692 -45 -214 -58 -492 -32
-703 114 -930 812 -1677 1733 -1854 624 -119 1284 52 1773 461 406 340 667
804 753 1338 23 146 23 475 -1 626 -54 349 -183 661 -393 955 -75 105 -281
319 -393 408 -296 235 -653 390 -1025 446 -129 19 -389 27 -506 15z m-49
-1296 c4 -82 7 -210 8 -284 l1 -135 -30 -20 c-39 -26 -70 -90 -70 -144 0 -34
20 -81 101 -239 145 -283 229 -429 271 -475 l37 -39 63 5 c35 3 72 8 83 11 15
5 67 -31 225 -155 113 -88 213 -169 224 -179 18 -18 16 -19 -66 -59 -96 -45
-243 -91 -294 -91 -206 0 -434 170 -679 505 -111 153 -164 248 -205 376 -91
278 -129 717 -72 842 40 90 117 159 220 197 52 20 147 40 167 35 6 -1 13 -64
16 -151z m126 132 c28 -14 56 -33 61 -43 5 -10 12 -105 16 -212 l7 -193 -26
-33 c-28 -38 -109 -75 -126 -58 -12 12 -26 520 -16 547 8 22 23 20 84 -8z
m591 -1363 c22 -16 95 -70 161 -121 l121 -94 0 -71 c-1 -40 -6 -84 -13 -100
l-12 -27 -224 178 c-124 97 -226 183 -228 189 -5 14 102 72 133 73 12 0 39
-12 62 -27z"/>
</g>
</svg>
